<svg width="30" height="32" viewBox="0 0 30 32" fill="none" xmlns="http://www.w3.org/2000/svg">
<path d="M15.1462 0.556396C23.0899 0.556396 29.5282 7.56018 29.5282 16.1984C29.5282 24.8381 23.0899 31.8404 15.1462 31.8404C7.20377 31.8404 0.76416 24.8374 0.76416 16.1984C0.76416 7.56018 7.20377 0.556396 15.1462 0.556396Z" fill="#F5AC37"/>
<path d="M15.6762 17.3029H21.1412C21.2577 17.3029 21.3127 17.3029 21.3211 17.1368C21.3657 16.5321 21.3657 15.924 21.3211 15.3186C21.3211 15.2011 21.2674 15.1525 21.1502 15.1525H10.2741C10.1394 15.1525 10.1032 15.2011 10.1032 15.3383V17.0784C10.1032 17.3029 10.1032 17.3029 10.3187 17.3029H15.6762ZM20.7108 13.1189C20.7263 13.0746 20.7263 13.026 20.7108 12.9824C20.6195 12.7663 20.5114 12.5601 20.3859 12.3665C20.1969 12.0356 19.9743 11.7309 19.7206 11.457C19.6008 11.2916 19.4623 11.1431 19.307 11.0171C18.5291 10.297 17.6042 9.7874 16.6101 9.53118C16.1085 9.4087 15.596 9.35028 15.0821 9.3552H10.2553C10.1207 9.3552 10.1026 9.41363 10.1026 9.54103V13.0112C10.1026 13.1577 10.1026 13.1971 10.2734 13.1971H20.6461C20.6461 13.1971 20.736 13.1774 20.7541 13.1189H20.7101H20.7108ZM20.7108 19.3365C20.558 19.3182 20.404 19.3182 20.2513 19.3365H10.2831C10.1485 19.3365 10.1032 19.3365 10.1032 19.5322V22.9249C10.1032 23.0812 10.1032 23.1206 10.2831 23.1206H14.8853C15.1054 23.1389 15.3254 23.122 15.541 23.0721C16.2089 23.02 16.8658 22.8623 17.4923 22.6026C17.7201 22.5167 17.9401 22.4048 18.1479 22.2703H18.2106C19.2895 21.66 20.1658 20.7013 20.7185 19.5244C20.7185 19.5244 20.7813 19.3766 20.7108 19.3379V19.3365ZM8.29687 24.8797V24.8213V22.5434V21.7713V19.4737C8.29687 19.3463 8.29687 19.3273 8.1532 19.3273H6.20254C6.09446 19.3273 6.0498 19.3273 6.0498 19.1711V17.3135H8.13508C8.25157 17.3135 8.29687 17.3135 8.29687 17.1474V15.3095C8.29687 15.1919 8.29687 15.1631 8.1532 15.1631H6.20254C6.09446 15.1631 6.0498 15.1631 6.0498 15.0068V13.2865C6.0498 13.1788 6.0498 13.1499 6.19348 13.1499H8.12601C8.26063 13.1499 8.29687 13.1499 8.29687 12.9641V7.69471C8.29687 7.53844 8.29687 7.49902 8.4768 7.49902H15.218C15.7073 7.52014 16.1933 7.57856 16.6742 7.675C17.6651 7.8742 18.6171 8.25923 19.4876 8.80898C20.0649 9.17852 20.5962 9.6248 21.0693 10.1386C21.4253 10.5406 21.7463 10.9756 22.0311 11.4387C22.3139 11.9082 22.5488 12.4101 22.7333 12.9345C22.7559 13.0711 22.8763 13.1633 23.0018 13.1401H24.6108C24.8172 13.1401 24.8172 13.1401 24.8263 13.3555V14.9589C24.8263 15.1152 24.7726 15.1546 24.6283 15.1546H23.3876C23.262 15.1546 23.2258 15.1546 23.2348 15.3306C23.284 15.9261 23.284 16.5237 23.2348 17.1192C23.2348 17.2853 23.2348 17.305 23.4063 17.305H24.8257C24.8884 17.393 24.8257 17.481 24.8257 17.5697C24.8347 17.683 24.8347 17.7978 24.8257 17.9111V19.0943C24.8257 19.2605 24.781 19.3097 24.6457 19.3097H22.9468C22.8284 19.2851 22.7132 19.3674 22.686 19.4956C22.2815 20.6394 21.6343 21.665 20.7981 22.4871C20.4927 22.7863 20.1717 23.0678 19.8364 23.3276C19.4766 23.5528 19.1264 23.7872 18.7575 23.9731C18.0786 24.3053 17.3667 24.5502 16.636 24.7058C15.9422 24.841 15.2387 24.9022 14.5326 24.8916H8.29429V24.8818L8.29687 24.8797Z" fill="#FEFEFD"/>
</svg>
