<svg xmlns="http://www.w3.org/2000/svg" viewBox="0 0 5 5" fill="none" shape-rendering="crispEdges" width="512" height="512"><desc>"Identicon" by "Florian Körner", licensed under "CC0 1.0". / Remix of the original. - Created with dicebear.com</desc><metadata xmlns:dc="http://purl.org/dc/elements/1.1/" xmlns:cc="http://creativecommons.org/ns#" xmlns:rdf="http://www.w3.org/1999/02/22-rdf-syntax-ns#"><rdf:RDF><cc:Work><dc:title>Identicon</dc:title><dc:creator><cc:Agent rdf:about="https://dicebear.com"><dc:title>Florian Körner</dc:title></cc:Agent></dc:creator><dc:source>https://dicebear.com</dc:source><cc:license rdf:resource="https://creativecommons.org/publicdomain/zero/1.0/" /></cc:Work></rdf:RDF></metadata><mask id="viewboxMask"><rect width="5" height="5" rx="0" ry="0" x="0" y="0" fill="#fff" /></mask><g mask="url(#viewboxMask)"><rect fill="#b6e3f4" width="5" height="5" x="0" y="0" /><path d="M0 0h1v1H0V0ZM4 0h1v1H4V0ZM3 0H2v1h1V0Z" fill="#3949ab"/><path d="M2 1H1v1h1V1ZM4 1H3v1h1V1Z" fill="#3949ab"/><path d="M0 2h1v1H0V2ZM4 2h1v1H4V2ZM3 2H2v1h1V2Z" fill="#3949ab"/><path fill="#3949ab" d="M0 3h5v1H0z"/><path fill="#3949ab" d="M2 4h1v1H2z"/></g></svg>