<svg width="50" height="46" viewBox="0 0 50 46" fill="none" xmlns="http://www.w3.org/2000/svg">
<path d="M46.8625 0.5L27.9062 14.5625L31.4313 6.275L46.8625 0.5Z" fill="#E17726" stroke="#E17726" strokeWidth="0.49375" strokeLinecap="round" strokeLinejoin="round"/>
<path d="M3.13745 0.5L21.9249 14.6937L18.5687 6.275L3.13745 0.5Z" fill="#E27625" stroke="#E27625" strokeWidth="0.49375" strokeLinecap="round" strokeLinejoin="round"/>
<path d="M40.0375 33.1064L34.9937 40.8314L45.7937 43.8127L48.8875 33.2752L40.0375 33.1064Z" fill="#E27625" stroke="#E27625" strokeWidth="0.49375" strokeLinecap="round" strokeLinejoin="round"/>
<path d="M1.13129 33.2752L4.20629 43.8127L14.9875 40.8314L9.96254 33.1064L1.13129 33.2752Z" fill="#E27625" stroke="#E27625" strokeWidth="0.49375" strokeLinecap="round" strokeLinejoin="round"/>
<path d="M14.4062 20.0561L11.4062 24.5936L22.0937 25.0811L21.7375 13.5498L14.4062 20.0561Z" fill="#E27625" stroke="#E27625" strokeWidth="0.49375" strokeLinecap="round" strokeLinejoin="round"/>
<path d="M35.5937 20.0564L28.15 13.4189L27.9062 25.0814L38.5937 24.5939L35.5937 20.0564Z" fill="#E27625" stroke="#E27625" strokeWidth="0.49375" strokeLinecap="round" strokeLinejoin="round"/>
<path d="M14.9875 40.8313L21.4562 37.7001L15.8875 33.3501L14.9875 40.8313Z" fill="#E27625" stroke="#E27625" strokeWidth="0.49375" strokeLinecap="round" strokeLinejoin="round"/>
<path d="M28.5437 37.7001L34.9937 40.8313L34.1125 33.3501L28.5437 37.7001Z" fill="#E27625" stroke="#E27625" strokeWidth="0.49375" strokeLinecap="round" strokeLinejoin="round"/>
<path d="M34.9937 40.831L28.5437 37.6997L29.0687 41.8997L29.0125 43.681L34.9937 40.831Z" fill="#D5BFB2" stroke="#D5BFB2" strokeWidth="0.49375" strokeLinecap="round" strokeLinejoin="round"/>
<path d="M14.9875 40.831L20.9875 43.681L20.95 41.8997L21.4562 37.6997L14.9875 40.831Z" fill="#D5BFB2" stroke="#D5BFB2" strokeWidth="0.49375" strokeLinecap="round" strokeLinejoin="round"/>
<path d="M21.1 30.5751L15.7375 29.0001L19.525 27.2563L21.1 30.5751Z" fill="#233447" stroke="#233447" strokeWidth="0.49375" strokeLinecap="round" strokeLinejoin="round"/>
<path d="M28.9 30.5751L30.475 27.2563L34.2813 29.0001L28.9 30.5751Z" fill="#233447" stroke="#233447" strokeWidth="0.49375" strokeLinecap="round" strokeLinejoin="round"/>
<path d="M14.9875 40.831L15.925 33.106L9.96246 33.2747L14.9875 40.831Z" fill="#CC6228" stroke="#CC6228" strokeWidth="0.49375" strokeLinecap="round" strokeLinejoin="round"/>
<path d="M34.075 33.106L34.9938 40.831L40.0375 33.2747L34.075 33.106Z" fill="#CC6228" stroke="#CC6228" strokeWidth="0.49375" strokeLinecap="round" strokeLinejoin="round"/>
<path d="M38.5937 24.5933L27.9062 25.0808L28.9 30.5745L30.475 27.2558L34.2812 28.9995L38.5937 24.5933Z" fill="#CC6228" stroke="#CC6228" strokeWidth="0.49375" strokeLinecap="round" strokeLinejoin="round"/>
<path d="M15.7375 28.9995L19.525 27.2558L21.1 30.5745L22.0937 25.0808L11.4062 24.5933L15.7375 28.9995Z" fill="#CC6228" stroke="#CC6228" strokeWidth="0.49375" strokeLinecap="round" strokeLinejoin="round"/>
<path d="M11.4062 24.5933L15.8875 33.3495L15.7375 28.9995L11.4062 24.5933Z" fill="#E27525" stroke="#E27525" strokeWidth="0.49375" strokeLinecap="round" strokeLinejoin="round"/>
<path d="M34.2812 28.9995L34.1125 33.3495L38.5937 24.5933L34.2812 28.9995Z" fill="#E27525" stroke="#E27525" strokeWidth="0.49375" strokeLinecap="round" strokeLinejoin="round"/>
<path d="M22.0937 25.0811L21.1 30.5748L22.3562 37.0623L22.6375 28.5123L22.0937 25.0811Z" fill="#E27525" stroke="#E27525" strokeWidth="0.49375" strokeLinecap="round" strokeLinejoin="round"/>
<path d="M27.9062 25.0811L27.3812 28.4936L27.6437 37.0623L28.9 30.5748L27.9062 25.0811Z" fill="#E27525" stroke="#E27525" strokeWidth="0.49375" strokeLinecap="round" strokeLinejoin="round"/>
<path d="M28.9 30.575L27.6437 37.0625L28.5437 37.7L34.1125 33.35L34.2812 29L28.9 30.575Z" fill="#F5841F" stroke="#F5841F" strokeWidth="0.49375" strokeLinecap="round" strokeLinejoin="round"/>
<path d="M15.7375 29L15.8875 33.35L21.4562 37.7L22.3562 37.0625L21.1 30.575L15.7375 29Z" fill="#F5841F" stroke="#F5841F" strokeWidth="0.49375" strokeLinecap="round" strokeLinejoin="round"/>
<path d="M29.0125 43.6811L29.0687 41.8998L28.5812 41.4873H21.4187L20.95 41.8998L20.9875 43.6811L14.9875 40.8311L17.0875 42.5561L21.3437 45.4998H28.6375L32.9125 42.5561L34.9937 40.8311L29.0125 43.6811Z" fill="#C0AC9D" stroke="#C0AC9D" strokeWidth="0.49375" strokeLinecap="round" strokeLinejoin="round"/>
<path d="M28.5438 37.6995L27.6438 37.062H22.3563L21.4563 37.6995L20.95 41.8995L21.4188 41.487H28.5813L29.0688 41.8995L28.5438 37.6995Z" fill="#161616" stroke="#161616" strokeWidth="0.49375" strokeLinecap="round" strokeLinejoin="round"/>
<path d="M47.6687 15.4812L49.2625 7.71875L46.8625 0.5L28.5437 14.0938L35.5937 20.0563L45.55 22.9625L47.7437 20.3938L46.7875 19.7L48.3062 18.3125L47.1437 17.4125L48.6625 16.25L47.6687 15.4812Z" fill="#763E1A" stroke="#763E1A" strokeWidth="0.49375" strokeLinecap="round" strokeLinejoin="round"/>
<path d="M0.737488 7.71875L2.34999 15.4812L1.31874 16.25L2.85624 17.4125L1.69374 18.3125L3.21249 19.7L2.25624 20.3938L4.44999 22.9625L14.4062 20.0563L21.4562 14.0938L3.13749 0.5L0.737488 7.71875Z" fill="#763E1A" stroke="#763E1A" strokeWidth="0.49375" strokeLinecap="round" strokeLinejoin="round"/>
<path d="M45.5499 22.9624L35.5937 20.0562L38.5937 24.5937L34.1124 33.3499L40.0374 33.2749H48.8874L45.5499 22.9624Z" fill="#F5841F" stroke="#F5841F" strokeWidth="0.49375" strokeLinecap="round" strokeLinejoin="round"/>
<path d="M14.4063 20.0562L4.45004 22.9624L1.13129 33.2749H9.96254L15.8875 33.3499L11.4063 24.5937L14.4063 20.0562Z" fill="#F5841F" stroke="#F5841F" strokeWidth="0.49375" strokeLinecap="round" strokeLinejoin="round"/>
<path d="M27.9062 25.0812L28.5437 14.0937L31.4312 6.2749H18.5687L21.4562 14.0937L22.0937 25.0812L22.3375 28.5312L22.3562 37.0624H27.6437L27.6625 28.5312L27.9062 25.0812Z" fill="#F5841F" stroke="#F5841F" strokeWidth="0.49375" strokeLinecap="round" strokeLinejoin="round"/>
</svg>
