<svg width="179" height="182" viewBox="0 0 179 182" fill="none" xmlns="http://www.w3.org/2000/svg">
<path d="M68.4691 226.389C31.0414 193.993 7.81174 131.213 16.4616 86.2029C25.1114 41.1932 62.4037 30.798 99.8314 63.1941C137.259 95.5901 160.489 158.371 151.839 203.381C143.189 248.39 105.897 258.785 68.4691 226.389Z" fill="url(#paint0_linear_24_3788)" stroke="#253D8E" strokeWidth="1.65274"/>
<path d="M81.2817 221.175C45.0225 189.79 22.6962 127.859 31.3419 82.8705C39.9876 37.8823 76.3544 26.7535 112.614 58.1381C148.873 89.5227 171.199 151.454 162.553 196.442C153.908 241.431 117.541 252.559 81.2817 221.175Z" fill="url(#paint1_linear_24_3788)" stroke="#253D8E" strokeWidth="1.65274"/>
<path d="M88.3083 208.92C55.5868 180.597 35.2944 125.678 42.8636 86.2915C50.4327 46.9051 83.035 37.7694 115.756 66.092C148.478 94.4145 168.77 149.334 161.201 188.72C153.632 228.107 121.03 237.242 88.3083 208.92Z" fill="url(#paint2_linear_24_3788)" stroke="#253D8E" strokeWidth="1.65274"/>
<mask id="path-4-inside-1_24_3788" fill="white">
<path d="M109.87 180.646C109.997 181.629 109.461 182.18 108.669 181.832C101.922 178.87 95.0737 173.59 88.9469 166.605C82.8201 159.621 77.6943 151.252 74.1728 142.509C73.7591 141.482 74.0157 140.613 74.7147 140.571L81.5082 140.167C82.2072 140.125 83.0827 140.927 83.5083 141.953C85.9617 147.864 89.4574 153.509 93.611 158.244C97.7647 162.979 102.393 166.594 106.97 168.698C107.764 169.063 108.506 170.105 108.633 171.088L109.87 180.646Z"/>
</mask>
<path d="M109.87 180.646C109.997 181.629 109.461 182.18 108.669 181.832C101.922 178.87 95.0737 173.59 88.9469 166.605C82.8201 159.621 77.6943 151.252 74.1728 142.509C73.7591 141.482 74.0157 140.613 74.7147 140.571L81.5082 140.167C82.2072 140.125 83.0827 140.927 83.5083 141.953C85.9617 147.864 89.4574 153.509 93.611 158.244C97.7647 162.979 102.393 166.594 106.97 168.698C107.764 169.063 108.506 170.105 108.633 171.088L109.87 180.646Z" fill="#D9D9D9" stroke="#8C8C8C" strokeWidth="3.33786" mask="url(#path-4-inside-1_24_3788)"/>
<mask id="path-5-inside-2_24_3788" fill="white">
<path d="M136.212 150.547C136.966 150.679 137.793 151.616 138.025 152.632C140.06 161.562 140.056 169.852 137.996 176.436C135.937 183.019 131.921 187.576 126.476 189.545C125.857 189.768 124.949 189.091 124.471 188.076L119.826 178.219C119.348 177.205 119.482 176.24 120.093 175.999C123.73 174.559 126.416 171.426 127.814 166.959C129.211 162.491 129.255 156.899 127.956 150.865C127.738 149.853 128.132 149.13 128.886 149.262L136.212 150.547Z"/>
</mask>
<path d="M136.212 150.547C136.966 150.679 137.793 151.616 138.025 152.632C140.06 161.562 140.056 169.852 137.996 176.436C135.937 183.019 131.921 187.576 126.476 189.545C125.857 189.768 124.949 189.091 124.471 188.076L119.826 178.219C119.348 177.205 119.482 176.24 120.093 175.999C123.73 174.559 126.416 171.426 127.814 166.959C129.211 162.491 129.255 156.899 127.956 150.865C127.738 149.853 128.132 149.13 128.886 149.262L136.212 150.547Z" fill="#D9D9D9" stroke="#8C8C8C" strokeWidth="3.33786" mask="url(#path-5-inside-2_24_3788)"/>
<mask id="path-6-inside-3_24_3788" fill="white">
<path d="M113.226 179.277C113.352 180.251 112.821 180.797 112.036 180.452C105.355 177.519 98.5732 172.289 92.5058 165.373C86.4384 158.456 81.3624 150.169 77.875 141.51C77.4653 140.493 77.7195 139.632 78.4117 139.591L85.1393 139.191C85.8315 139.15 86.6985 139.944 87.12 140.96C89.5496 146.814 93.0114 152.404 97.1247 157.093C101.238 161.782 105.821 165.362 110.354 167.445C111.141 167.807 111.875 168.838 112.001 169.812L113.226 179.277Z"/>
</mask>
<path d="M113.226 179.277C113.352 180.251 112.821 180.797 112.036 180.452C105.355 177.519 98.5732 172.289 92.5058 165.373C86.4384 158.456 81.3624 150.169 77.875 141.51C77.4653 140.493 77.7195 139.632 78.4117 139.591L85.1393 139.191C85.8315 139.15 86.6985 139.944 87.12 140.96C89.5496 146.814 93.0114 152.404 97.1247 157.093C101.238 161.782 105.821 165.362 110.354 167.445C111.141 167.807 111.875 168.838 112.001 169.812L113.226 179.277Z" fill="#EEEEEE" stroke="#D9D9D9" strokeWidth="3.30549" mask="url(#path-6-inside-3_24_3788)"/>
<mask id="path-7-inside-4_24_3788" fill="white">
<path d="M139.313 149.47C140.06 149.601 140.879 150.529 141.108 151.535C143.123 160.378 143.12 168.588 141.08 175.108C139.04 181.627 135.064 186.14 129.672 188.089C129.059 188.311 128.16 187.64 127.686 186.636L123.086 176.874C122.613 175.87 122.746 174.914 123.35 174.675C126.952 173.249 129.612 170.147 130.996 165.723C132.38 161.298 132.423 155.761 131.137 149.786C130.921 148.783 131.311 148.067 132.058 148.198L139.313 149.47Z"/>
</mask>
<path d="M139.313 149.47C140.06 149.601 140.879 150.529 141.108 151.535C143.123 160.378 143.12 168.588 141.08 175.108C139.04 181.627 135.064 186.14 129.672 188.089C129.059 188.311 128.16 187.64 127.686 186.636L123.086 176.874C122.613 175.87 122.746 174.914 123.35 174.675C126.952 173.249 129.612 170.147 130.996 165.723C132.38 161.298 132.423 155.761 131.137 149.786C130.921 148.783 131.311 148.067 132.058 148.198L139.313 149.47Z" fill="#EEEEEE" stroke="#D9D9D9" strokeWidth="3.30549" mask="url(#path-7-inside-4_24_3788)"/>
<defs>
<linearGradient id="paint0_linear_24_3788" x1="152.464" y1="203.921" x2="-1.21432" y2="174.388" gradientUnits="userSpaceOnUse">
<stop stop-color="#43489D"/>
<stop offset="1" stop-color="#4792D1"/>
</linearGradient>
<linearGradient id="paint1_linear_24_3788" x1="163.178" y1="196.983" x2="14.1859" y2="168.35" gradientUnits="userSpaceOnUse">
<stop stop-color="#43489D"/>
<stop offset="1" stop-color="#4792D1"/>
</linearGradient>
<linearGradient id="paint2_linear_24_3788" x1="161.826" y1="189.261" x2="27.3142" y2="163.411" gradientUnits="userSpaceOnUse">
<stop stop-color="#43489D"/>
<stop offset="1" stop-color="#4792D1"/>
</linearGradient>
</defs>
</svg>
