<svg width="192" height="123" viewBox="0 0 192 123" fill="none" xmlns="http://www.w3.org/2000/svg">
<path d="M-42.1282 95.6756C-47.8256 99.0611 -49.6998 106.424 -46.3143 112.122L10.9978 208.572C14.3833 214.269 21.7465 216.143 27.444 212.758L185.618 118.768C191.316 115.382 193.19 108.019 189.805 102.322L175.92 78.9553C175.318 77.9432 173.98 77.6731 172.975 78.2856C168.886 80.7768 164.083 82.2118 158.946 82.2118C144.034 82.2118 131.946 70.1235 131.946 55.2118C131.946 45.2414 137.35 36.5332 145.389 31.8567C146.406 31.2654 146.807 29.9618 146.206 28.9508L132.492 5.87184C129.107 0.174396 121.744 -1.6998 116.046 1.68572L-42.1282 95.6756Z" fill="#73659E"/>
<path d="M-45.1282 95.6756C-50.8256 99.0611 -52.6998 106.424 -49.3143 112.122L7.99781 208.572C11.3833 214.269 18.7465 216.143 24.444 212.758L182.618 118.768C188.316 115.382 190.19 108.019 186.805 102.322L172.92 78.9553C172.318 77.9432 170.98 77.6731 169.975 78.2856C165.886 80.7768 161.083 82.2118 155.946 82.2118C141.034 82.2118 128.946 70.1235 128.946 55.2118C128.946 45.2414 134.35 36.5332 142.389 31.8567C143.406 31.2654 143.807 29.9618 143.206 28.9508L129.492 5.87184C126.107 0.174396 118.744 -1.6998 113.046 1.68572L-45.1282 95.6756Z" fill="url(#paint0_linear_16_3711)"/>
<path d="M100.5 68.5C100.5 68.5 104 63 105 63C106 63 109.5 68.5 109.5 68.5C109.5 68.5 115 65.5 115.5 66C116 66.5 116 73 116 73C116 73 123 73 123.5 73.5C124 74 120.5 80 120.5 80C120.5 80 126 83.5 126 84C126 84.5 120.5 88 120.5 88C120.5 88 123.5 94.5 123.5 95C123.5 95.5 115.5 95.5 115.5 95.5C115.5 95.5 116 102 115.5 102.5C115 103 109.5 99.5 109.5 99.5C109.5 99.5 105 105.5 104.5 105.5C104 105.5 100 99.5 100 99.5C100 99.5 93.5 102.5 93 102C92.5 101.5 93 94.5 93 94.5C93 94.5 86 95 85.5 94.5C85 94 89 88 89 88C89 88 83 84.5 83 84C83 83.5 89 79 89 79C89 79 86 73.5514 86 73C86 72.5 93.5 72.5 93.5 72.5C93.5 72.5 93.5 65.5 94 65C94.5 64.5 100.5 68.5 100.5 68.5Z" fill="#050317" stroke="#050317" strokeLinecap="round"/>
<path d="M99.5 69.5C99.5 69.5 103 64 104 64C105 64 108.5 69.5 108.5 69.5C108.5 69.5 114 66.5 114.5 67C115 67.5 115 74 115 74C115 74 122 74 122.5 74.5C123 75 119.5 81 119.5 81C119.5 81 125 84.5 125 85C125 85.5 119.5 89 119.5 89C119.5 89 122.5 95.5 122.5 96C122.5 96.5 114.5 96.5 114.5 96.5C114.5 96.5 115 103 114.5 103.5C114 104 108.5 100.5 108.5 100.5C108.5 100.5 104 106.5 103.5 106.5C103 106.5 99 100.5 99 100.5C99 100.5 92.5 103.5 92 103C91.5 102.5 92 95.5 92 95.5C92 95.5 85 96 84.5 95.5C84 95 88 89 88 89C88 89 82 85.5 82 85C82 84.5 88 80 88 80C88 80 85 74.5514 85 74C85 73.5 92.5 73.5 92.5 73.5C92.5 73.5 92.5 66.5 93 66C93.5 65.5 99.5 69.5 99.5 69.5Z" fill="white" stroke="#050317" strokeLinecap="round"/>
<path d="M44.5 44.5L96.5 134.5" stroke="white" stroke-opacity="0.45" strokeWidth="1.5" strokeLinecap="round" stroke-dasharray="5 6"/>
<rect x="-25" y="93.2661" width="69.6321" height="87.9145" rx="4" transform="rotate(-30.2671 -25 93.2661)" fill="#88F231"/>
<path d="M5.24089 123.229C4.87733 125.324 3.85458 126.896 2.95652 126.741C2.05845 126.585 1.62515 124.76 1.98871 122.664C2.35227 120.569 3.37502 118.996 4.27308 119.152C5.17115 119.308 5.60445 121.133 5.24089 123.229Z" fill="#71D81F"/>
<path d="M10.6612 124.169C10.2977 126.264 9.2749 127.837 8.37683 127.681C7.47877 127.525 7.04546 125.7 7.40902 123.605C7.77258 121.509 8.79533 119.937 9.6934 120.093C10.5915 120.248 11.0248 122.073 10.6612 124.169Z" fill="#71D81F"/>
<path d="M12.2288 128.931C12.5006 129.067 12.6109 129.397 12.4751 129.669C11.0462 132.53 7.80851 133.442 4.884 133.007C1.9657 132.574 -0.918795 130.763 -1.65333 127.843C-1.72745 127.548 -1.54868 127.249 -1.25403 127.175C-0.959382 127.101 -0.660436 127.28 -0.586317 127.574C0.000908643 129.909 2.38456 131.524 5.0456 131.919C7.70043 132.313 10.3532 131.455 11.4908 129.178C11.6266 128.906 11.957 128.795 12.2288 128.931Z" fill="#71D81F"/>
<path fillRule="evenodd" clipRule="evenodd" d="M16.8835 126.924C15.8447 132.911 10.1491 136.922 4.16203 135.883C-1.82509 134.845 -5.83654 129.149 -4.7978 123.162C-3.75906 117.175 1.93653 113.163 7.92364 114.202C13.9108 115.241 17.9222 120.936 16.8835 126.924ZM15.7994 126.735C14.8645 132.124 9.73851 135.734 4.35011 134.799C-1.0383 133.864 -4.6486 128.738 -3.71374 123.35C-2.77887 117.962 2.34716 114.351 7.73556 115.286C13.124 116.221 16.7343 121.347 15.7994 126.735Z" fill="#71D81F"/>
<path fillRule="evenodd" clipRule="evenodd" d="M4.35011 134.799C9.73851 135.734 14.8645 132.124 15.7994 126.735C16.7343 121.347 13.124 116.221 7.73556 115.286C2.34716 114.351 -2.77887 117.962 -3.71374 123.35C-4.6486 128.738 -1.0383 133.864 4.35011 134.799ZM5.24089 123.229C4.87733 125.324 3.85458 126.896 2.95652 126.741C2.05845 126.585 1.62515 124.76 1.98871 122.664C2.35227 120.569 3.37502 118.996 4.27308 119.152C5.17115 119.308 5.60445 121.133 5.24089 123.229ZM10.6612 124.169C10.2977 126.264 9.2749 127.837 8.37683 127.681C7.47877 127.525 7.04546 125.7 7.40902 123.605C7.77258 121.509 8.79533 119.937 9.6934 120.093C10.5915 120.248 11.0248 122.073 10.6612 124.169ZM12.2288 128.931C12.5006 129.067 12.6109 129.397 12.4751 129.669C11.0462 132.53 7.80851 133.442 4.884 133.007C1.9657 132.574 -0.918795 130.763 -1.65333 127.843C-1.72745 127.548 -1.54868 127.249 -1.25403 127.175C-0.959382 127.101 -0.660436 127.28 -0.586317 127.574C0.000908643 129.909 2.38456 131.524 5.0456 131.919C7.70043 132.313 10.3532 131.455 11.4908 129.178C11.6266 128.906 11.957 128.795 12.2288 128.931Z" fill="#88F32F"/>
<path d="M18.6408 109.05C20.5559 109.312 22.0175 110.189 21.9053 111.01C21.7931 111.831 20.1496 112.284 18.2344 112.022C16.3192 111.76 14.8576 110.883 14.9698 110.062C15.0821 109.241 16.7256 108.788 18.6408 109.05Z" fill="#71D81F"/>
<path d="M19.318 104.096C21.2332 104.358 22.6948 105.235 22.5826 106.056C22.4704 106.877 20.8269 107.33 18.9117 107.068C16.9965 106.806 15.5349 105.929 15.6471 105.108C15.7593 104.287 17.4029 103.834 19.318 104.096Z" fill="#71D81F"/>
<path d="M23.5924 102.517C23.7069 102.265 24.0034 102.154 24.2547 102.269C26.8997 103.473 27.8334 106.384 27.5344 109.055C27.2361 111.72 25.685 114.399 23.0567 115.161C22.7915 115.238 22.5141 115.085 22.4372 114.82C22.3603 114.555 22.5129 114.278 22.7781 114.201C24.8793 113.591 26.2686 111.373 26.5406 108.944C26.812 106.519 25.946 104.138 23.8403 103.179C23.589 103.064 23.478 102.768 23.5924 102.517Z" fill="#71D81F"/>
<path fillRule="evenodd" clipRule="evenodd" d="M21.617 98.3543C27.0889 99.1024 30.9183 104.145 30.1702 109.617C29.4221 115.089 24.3798 118.918 18.9078 118.17C13.4359 117.422 9.60646 112.38 10.3546 106.908C11.1027 101.436 16.145 97.6062 21.617 98.3543ZM21.4815 99.3451C26.4063 100.018 29.8527 104.557 29.1794 109.481C28.5062 114.406 23.968 117.853 19.0433 117.179C14.1185 116.506 10.6721 111.968 11.3453 107.043C12.0186 102.118 16.5568 98.6718 21.4815 99.3451Z" fill="#71D81F"/>
<path fillRule="evenodd" clipRule="evenodd" d="M29.1794 109.481C29.8527 104.557 26.4063 100.018 21.4815 99.3451C16.5568 98.6718 12.0186 102.118 11.3453 107.043C10.6721 111.968 14.1185 116.506 19.0433 117.179C23.968 117.853 28.5062 114.406 29.1794 109.481ZM18.6408 109.05C20.5559 109.312 22.0175 110.189 21.9053 111.01C21.7931 111.831 20.1496 112.284 18.2344 112.022C16.3192 111.76 14.8576 110.883 14.9698 110.062C15.0821 109.241 16.7256 108.788 18.6408 109.05ZM19.318 104.096C21.2332 104.358 22.6948 105.235 22.5826 106.056C22.4704 106.877 20.8269 107.33 18.9117 107.068C16.9965 106.806 15.5349 105.929 15.6471 105.108C15.7593 104.287 17.4029 103.834 19.318 104.096ZM23.5924 102.517C23.7069 102.265 24.0034 102.154 24.2547 102.269C26.8997 103.473 27.8334 106.384 27.5344 109.055C27.2361 111.72 25.685 114.399 23.0567 115.161C22.7915 115.238 22.5141 115.085 22.4372 114.82C22.3603 114.555 22.5129 114.278 22.7781 114.201C24.8793 113.591 26.2686 111.373 26.5406 108.944C26.812 106.519 25.946 104.138 23.8403 103.179C23.589 103.064 23.478 102.768 23.5924 102.517Z" fill="#88F32F"/>
<path d="M23.2376 125.249C24.3375 126.838 24.6769 128.509 23.9957 128.981C23.3145 129.452 21.8706 128.545 20.7706 126.956C19.6707 125.366 19.3313 123.696 20.0125 123.224C20.6938 122.753 22.1377 123.659 23.2376 125.249Z" fill="#71D81F"/>
<path d="M27.3492 122.404C28.4491 123.993 28.7885 125.664 28.1073 126.135C27.4261 126.607 25.9822 125.7 24.8822 124.111C23.7823 122.521 23.4429 120.851 24.1241 120.379C24.8054 119.908 26.2493 120.814 27.3492 122.404Z" fill="#71D81F"/>
<path d="M31.4001 124.491C31.6627 124.405 31.9448 124.549 32.03 124.812C32.9273 127.576 31.4103 130.23 29.2386 131.813C27.0714 133.392 24.0479 134.057 21.7109 132.633C21.4751 132.489 21.4005 132.181 21.5441 131.945C21.6878 131.71 21.9955 131.635 22.2313 131.779C24.0996 132.917 26.6736 132.445 28.6497 131.005C30.6212 129.568 31.7932 127.321 31.0789 125.121C30.9936 124.858 31.1374 124.576 31.4001 124.491Z" fill="#71D81F"/>
<path fillRule="evenodd" clipRule="evenodd" d="M33.1367 120.223C36.2793 124.765 35.1453 130.994 30.6037 134.137C26.0622 137.279 19.8329 136.145 16.6902 131.604C13.5476 127.062 14.6817 120.833 19.2232 117.69C23.7648 114.547 29.994 115.682 33.1367 120.223ZM32.3143 120.792C35.1427 124.879 34.1221 130.486 30.0347 133.314C25.9473 136.143 20.3409 135.122 17.5126 131.035C14.6842 126.947 15.7048 121.341 19.7922 118.512C23.8796 115.684 29.486 116.705 32.3143 120.792Z" fill="#71D81F"/>
<path fillRule="evenodd" clipRule="evenodd" d="M30.0347 133.314C34.1221 130.486 35.1427 124.879 32.3143 120.792C29.486 116.705 23.8796 115.684 19.7922 118.512C15.7048 121.341 14.6842 126.947 17.5126 131.035C20.3409 135.122 25.9473 136.143 30.0347 133.314ZM23.2376 125.249C24.3375 126.838 24.6769 128.509 23.9957 128.981C23.3145 129.452 21.8706 128.545 20.7706 126.956C19.6707 125.366 19.3313 123.696 20.0125 123.224C20.6938 122.753 22.1377 123.659 23.2376 125.249ZM27.3492 122.404C28.4491 123.993 28.7885 125.664 28.1073 126.135C27.4261 126.607 25.9822 125.7 24.8822 124.111C23.7823 122.521 23.4429 120.851 24.1241 120.379C24.8054 119.908 26.2493 120.814 27.3492 122.404ZM31.4001 124.491C31.6627 124.405 31.9448 124.549 32.03 124.812C32.9273 127.576 31.4103 130.23 29.2386 131.813C27.0714 133.392 24.0479 134.057 21.7109 132.633C21.4751 132.489 21.4005 132.181 21.5441 131.945C21.6878 131.71 21.9955 131.635 22.2313 131.779C24.0996 132.917 26.6736 132.445 28.6497 131.005C30.6212 129.568 31.7932 127.321 31.0789 125.121C30.9936 124.858 31.1374 124.576 31.4001 124.491Z" fill="#88F32F"/>
<path d="M54.4238 112.522C53.3989 110.883 53.1376 109.198 53.84 108.759C54.5424 108.32 55.9426 109.293 56.9674 110.932C57.9923 112.571 58.2536 114.255 57.5512 114.694C56.8488 115.134 55.4486 114.161 54.4238 112.522Z" fill="#71D81F"/>
<path d="M50.1844 115.173C49.1595 113.534 48.8981 111.849 49.6006 111.41C50.303 110.971 51.7032 111.943 52.728 113.582C53.7528 115.221 54.0142 116.906 53.3118 117.345C52.6094 117.785 51.2092 116.812 50.1844 115.173Z" fill="#71D81F"/>
<path d="M46.2349 112.9C45.9685 112.973 45.6935 112.816 45.6205 112.55C44.8527 109.747 46.4915 107.166 48.7345 105.686C50.9727 104.21 54.0238 103.686 56.2921 105.217C56.5209 105.372 56.5812 105.683 56.4267 105.912C56.2722 106.14 55.9615 106.201 55.7326 106.046C53.9192 104.822 51.3261 105.175 49.2852 106.521C47.249 107.864 45.9737 110.054 46.585 112.286C46.658 112.552 46.5012 112.827 46.2349 112.9Z" fill="#71D81F"/>
<path fillRule="evenodd" clipRule="evenodd" d="M44.3018 117.082C41.3737 112.4 42.7961 106.23 47.4788 103.302C52.1616 100.373 58.3314 101.796 61.2595 106.479C64.1876 111.161 62.7652 117.331 58.0824 120.259C53.3997 123.187 47.2299 121.765 44.3018 117.082ZM45.1497 116.552C42.5144 112.338 43.7946 106.785 48.009 104.149C52.2235 101.514 57.7763 102.794 60.4116 107.009C63.0469 111.223 61.7667 116.776 57.5522 119.411C53.3378 122.047 47.7849 120.767 45.1497 116.552Z" fill="#71D81F"/>
<path fillRule="evenodd" clipRule="evenodd" d="M48.009 104.149C43.7946 106.785 42.5144 112.338 45.1497 116.552C47.7849 120.767 53.3378 122.047 57.5522 119.411C61.7667 116.776 63.0469 111.223 60.4116 107.009C57.7763 102.794 52.2235 101.514 48.009 104.149ZM54.4238 112.522C53.3989 110.883 53.1376 109.198 53.84 108.759C54.5424 108.32 55.9426 109.293 56.9674 110.932C57.9923 112.571 58.2536 114.255 57.5512 114.694C56.8488 115.134 55.4486 114.161 54.4238 112.522ZM50.1844 115.173C49.1595 113.534 48.8981 111.849 49.6006 111.41C50.303 110.971 51.7032 111.943 52.728 113.582C53.7528 115.221 54.0142 116.906 53.3118 117.345C52.6094 117.785 51.2092 116.812 50.1844 115.173ZM46.2349 112.9C45.9685 112.973 45.6935 112.816 45.6205 112.55C44.8527 109.747 46.4915 107.166 48.7345 105.686C50.9727 104.21 54.0238 103.686 56.2921 105.217C56.5209 105.372 56.5812 105.683 56.4267 105.912C56.2722 106.14 55.9615 106.201 55.7326 106.046C53.9192 104.822 51.3261 105.175 49.2852 106.521C47.249 107.864 45.9737 110.054 46.585 112.286C46.658 112.552 46.5012 112.827 46.2349 112.9Z" fill="#88F32F"/>
<path d="M62.3141 125.86C60.3869 125.711 58.8763 124.921 58.9402 124.095C59.0041 123.269 60.6182 122.72 62.5455 122.869C64.4727 123.018 65.9833 123.809 65.9194 124.635C65.8555 125.46 64.2414 126.009 62.3141 125.86Z" fill="#71D81F"/>
<path d="M61.9285 130.845C60.0012 130.696 58.4907 129.906 58.5546 129.08C58.6185 128.254 60.2326 127.705 62.1599 127.854C64.0871 128.003 65.5976 128.794 65.5337 129.62C65.4699 130.446 63.8557 130.994 61.9285 130.845Z" fill="#71D81F"/>
<path d="M57.754 132.672C57.6545 132.93 57.365 133.058 57.1075 132.959C54.3964 131.911 53.2936 129.06 53.4355 126.377C53.577 123.699 54.9684 120.933 57.5474 120.018C57.8076 119.926 58.0935 120.062 58.1858 120.322C58.2782 120.582 58.1421 120.868 57.8818 120.961C55.82 121.692 54.5632 123.988 54.4341 126.429C54.3053 128.865 55.3095 131.192 57.4678 132.026C57.7254 132.125 57.8536 132.415 57.754 132.672Z" fill="#71D81F"/>
<path fillRule="evenodd" clipRule="evenodd" d="M59.9702 136.712C54.4638 136.286 50.3453 131.477 50.7712 125.97C51.1972 120.464 56.0063 116.345 61.5127 116.771C67.0191 117.197 71.1376 122.006 70.7117 127.513C70.2857 133.019 65.4766 137.138 59.9702 136.712ZM60.0473 135.715C55.0916 135.331 51.3849 131.003 51.7683 126.047C52.1516 121.092 56.4798 117.385 61.4356 117.768C66.3913 118.152 70.098 122.48 69.7146 127.436C69.3313 132.391 65.0031 136.098 60.0473 135.715Z" fill="#71D81F"/>
<path fillRule="evenodd" clipRule="evenodd" d="M51.7683 126.047C51.3849 131.003 55.0916 135.331 60.0473 135.715C65.0031 136.098 69.3313 132.391 69.7146 127.436C70.098 122.48 66.3913 118.152 61.4356 117.768C56.4798 117.385 52.1516 121.092 51.7683 126.047ZM62.3141 125.86C60.3869 125.711 58.8763 124.921 58.9402 124.095C59.0041 123.269 60.6182 122.72 62.5455 122.869C64.4727 123.018 65.9833 123.809 65.9194 124.635C65.8555 125.46 64.2414 126.009 62.3141 125.86ZM61.9285 130.845C60.0012 130.696 58.4907 129.906 58.5546 129.08C58.6185 128.254 60.2326 127.705 62.1599 127.854C64.0871 128.003 65.5976 128.794 65.5337 129.62C65.4699 130.446 63.8557 130.994 61.9285 130.845ZM57.754 132.672C57.6545 132.93 57.365 133.058 57.1075 132.959C54.3964 131.911 53.2936 129.06 53.4355 126.377C53.577 123.699 54.9684 120.933 57.5474 120.018C57.8076 119.926 58.0935 120.062 58.1858 120.322C58.2782 120.582 58.1421 120.868 57.8818 120.961C55.82 121.692 54.5632 123.988 54.4341 126.429C54.3053 128.865 55.3095 131.192 57.4678 132.026C57.7254 132.125 57.8536 132.415 57.754 132.672Z" fill="#88F32F"/>
<path d="M43.9838 130.294C42.1842 131.428 40.3315 131.721 39.8458 130.95C39.36 130.179 40.4251 128.635 42.2247 127.501C44.0243 126.368 45.8769 126.074 46.3627 126.845C46.8485 127.617 45.7834 129.161 43.9838 130.294Z" fill="#71D81F"/>
<path d="M46.9156 134.949C45.116 136.083 43.2634 136.376 42.7776 135.605C42.2918 134.834 43.3569 133.29 45.1565 132.156C46.9561 131.023 48.8088 130.729 49.2945 131.5C49.7803 132.272 48.7152 133.816 46.9156 134.949Z" fill="#71D81F"/>
<path d="M44.429 139.303C44.5102 139.595 44.3387 139.899 44.046 139.98C40.9646 140.835 38.1192 139.041 36.483 136.578C34.8503 134.121 34.2636 130.766 35.94 128.265C36.1092 128.012 36.4509 127.945 36.7033 128.114C36.9557 128.283 37.0231 128.625 36.854 128.877C35.5137 130.877 35.9107 133.729 37.3995 135.969C38.8848 138.205 41.2987 139.6 43.7518 138.92C44.0446 138.838 44.3478 139.01 44.429 139.303Z" fill="#71D81F"/>
<path fillRule="evenodd" clipRule="evenodd" d="M49.0373 141.415C43.8956 144.653 37.1022 143.11 33.8638 137.968C30.6254 132.827 32.1683 126.033 37.31 122.795C42.4517 119.556 49.2451 121.099 52.4836 126.241C55.722 131.383 54.1791 138.176 49.0373 141.415ZM48.451 140.484C43.8234 143.398 37.7093 142.01 34.7948 137.382C31.8802 132.754 33.2688 126.64 37.8964 123.726C42.5239 120.811 48.638 122.2 51.5526 126.827C54.4671 131.455 53.0785 137.569 48.451 140.484Z" fill="#71D81F"/>
<path fillRule="evenodd" clipRule="evenodd" d="M34.7948 137.382C37.7093 142.01 43.8234 143.398 48.451 140.484C53.0785 137.569 54.4671 131.455 51.5526 126.827C48.638 122.2 42.5239 120.811 37.8964 123.726C33.2688 126.64 31.8802 132.754 34.7948 137.382ZM43.9838 130.294C42.1842 131.428 40.3315 131.721 39.8458 130.95C39.36 130.179 40.4251 128.635 42.2247 127.501C44.0243 126.368 45.8769 126.074 46.3627 126.845C46.8485 127.617 45.7834 129.161 43.9838 130.294ZM46.9156 134.949C45.116 136.083 43.2634 136.376 42.7776 135.605C42.2918 134.834 43.3569 133.29 45.1565 132.156C46.9561 131.023 48.8088 130.729 49.2945 131.5C49.7803 132.272 48.7152 133.816 46.9156 134.949ZM44.429 139.303C44.5102 139.595 44.3387 139.899 44.046 139.98C40.9646 140.835 38.1192 139.041 36.483 136.578C34.8503 134.121 34.2636 130.766 35.94 128.265C36.1092 128.012 36.4509 127.945 36.7033 128.114C36.9557 128.283 37.0231 128.625 36.854 128.877C35.5137 130.877 35.9107 133.729 37.3995 135.969C38.8848 138.205 41.2987 139.6 43.7518 138.92C44.0446 138.838 44.3478 139.01 44.429 139.303Z" fill="#88F32F"/>
<path d="M7.98378 87.363C6.18418 88.4965 4.33153 88.7901 3.84577 88.0188C3.36001 87.2476 4.42508 85.7035 6.22468 84.5701C8.02428 83.4366 9.87693 83.143 10.3627 83.9143C10.8485 84.6855 9.78338 86.2296 7.98378 87.363Z" fill="#71D81F"/>
<path d="M10.9156 92.018C9.11602 93.1514 7.26337 93.445 6.77761 92.6738C6.29185 91.9025 7.35692 90.3585 9.15652 89.225C10.9561 88.0916 12.8088 87.7979 13.2945 88.5692C13.7803 89.3405 12.7152 90.8845 10.9156 92.018Z" fill="#71D81F"/>
<path d="M8.42902 96.3716C8.51024 96.6643 8.33874 96.9675 8.04597 97.0487C4.96464 97.9035 2.11923 96.1098 0.48304 93.6472C-1.14968 91.1899 -1.73644 87.8347 -0.0599744 85.3336C0.109192 85.0813 0.450919 85.0138 0.703297 85.183C0.955675 85.3521 1.02313 85.6939 0.853967 85.9462C-0.486281 87.9457 -0.0893313 90.7976 1.39946 93.0383C2.88477 95.2738 5.29869 96.669 7.75185 95.9885C8.04462 95.9073 8.3478 96.0788 8.42902 96.3716Z" fill="#71D81F"/>
<path fillRule="evenodd" clipRule="evenodd" d="M13.0373 98.4835C7.89564 101.722 1.1022 100.179 -2.13622 95.0373C-5.37465 89.8955 -3.83173 83.1021 1.30998 79.8637C6.45169 76.6253 13.2451 78.1682 16.4836 83.3099C19.722 88.4516 18.1791 95.245 13.0373 98.4835ZM12.451 97.5525C7.82344 100.467 1.70935 99.0784 -1.20523 94.4509C-4.11981 89.8233 -2.73119 83.7093 1.89635 80.7947C6.52389 77.8801 12.638 79.2687 15.5526 83.8963C18.4671 88.5238 17.0785 94.6379 12.451 97.5525Z" fill="#71D81F"/>
<path fillRule="evenodd" clipRule="evenodd" d="M-1.20523 94.4509C1.70935 99.0784 7.82344 100.467 12.451 97.5525C17.0785 94.6379 18.4671 88.5238 15.5526 83.8963C12.638 79.2687 6.52389 77.8801 1.89635 80.7947C-2.73119 83.7093 -4.11981 89.8233 -1.20523 94.4509ZM7.98378 87.363C6.18418 88.4965 4.33153 88.7901 3.84577 88.0188C3.36001 87.2476 4.42508 85.7035 6.22468 84.5701C8.02428 83.4366 9.87693 83.143 10.3627 83.9143C10.8485 84.6855 9.78338 86.2296 7.98378 87.363ZM10.9156 92.018C9.11602 93.1514 7.26337 93.445 6.77761 92.6738C6.29185 91.9025 7.35692 90.3585 9.15652 89.225C10.9561 88.0916 12.8088 87.7979 13.2945 88.5692C13.7803 89.3405 12.7152 90.8845 10.9156 92.018ZM8.42902 96.3716C8.51024 96.6643 8.33874 96.9675 8.04597 97.0487C4.96464 97.9035 2.11923 96.1098 0.48304 93.6472C-1.14968 91.1899 -1.73644 87.8347 -0.0599744 85.3336C0.109192 85.0813 0.450919 85.0138 0.703297 85.183C0.955675 85.3521 1.02313 85.6939 0.853967 85.9462C-0.486281 87.9457 -0.0893313 90.7976 1.39946 93.0383C2.88477 95.2738 5.29869 96.669 7.75185 95.9885C8.04462 95.9073 8.3478 96.0788 8.42902 96.3716Z" fill="#88F32F"/>
<path d="M1.62464 106.656C2.06514 108.737 1.69936 110.576 0.807644 110.765C-0.0840739 110.954 -1.16405 109.42 -1.60456 107.34C-2.04507 105.259 -1.67928 103.419 -0.787566 103.23C0.10415 103.042 1.18413 104.575 1.62464 106.656Z" fill="#71D81F"/>
<path d="M7.00663 105.517C7.44714 107.597 7.08136 109.437 6.18964 109.626C5.29792 109.815 4.21794 108.281 3.77744 106.2C3.33693 104.12 3.70271 102.28 4.59443 102.091C5.48615 101.902 6.56613 103.436 7.00663 105.517Z" fill="#71D81F"/>
<path d="M10.2304 109.356C10.5332 109.382 10.7583 109.647 10.7332 109.95C10.4686 113.137 7.80087 115.186 4.92421 115.868C2.05365 116.55 -1.2972 115.939 -3.06346 113.5C-3.24168 113.254 -3.18669 112.91 -2.94063 112.732C-2.69457 112.554 -2.35061 112.609 -2.17239 112.855C-0.760354 114.804 2.05264 115.419 4.67014 114.798C7.28154 114.178 9.42607 112.396 9.63668 109.859C9.66182 109.556 9.92765 109.331 10.2304 109.356Z" fill="#71D81F"/>
<path fillRule="evenodd" clipRule="evenodd" d="M13.8069 105.764C15.0654 111.709 11.2665 117.548 5.32174 118.807C-0.623053 120.065 -6.46254 116.266 -7.72113 110.322C-8.97971 104.377 -5.1808 98.5373 0.763993 97.2787C6.70878 96.0202 12.5483 99.8191 13.8069 105.764ZM12.7305 105.992C13.8632 111.342 10.4442 116.598 5.09385 117.73C-0.256461 118.863 -5.512 115.444 -6.64473 110.094C-7.77746 104.743 -4.35843 99.4879 0.99188 98.3551C6.34219 97.2224 11.5977 100.641 12.7305 105.992Z" fill="#71D81F"/>
<path fillRule="evenodd" clipRule="evenodd" d="M5.09385 117.73C10.4442 116.598 13.8632 111.342 12.7305 105.992C11.5977 100.641 6.34219 97.2224 0.99188 98.3551C-4.35843 99.4879 -7.77746 104.743 -6.64473 110.094C-5.512 115.444 -0.256461 118.863 5.09385 117.73ZM1.62464 106.656C2.06514 108.737 1.69936 110.576 0.807644 110.765C-0.0840739 110.954 -1.16405 109.42 -1.60456 107.34C-2.04507 105.259 -1.67928 103.419 -0.787566 103.23C0.10415 103.042 1.18413 104.575 1.62464 106.656ZM7.00663 105.517C7.44714 107.597 7.08136 109.437 6.18964 109.626C5.29792 109.815 4.21794 108.281 3.77744 106.2C3.33693 104.12 3.70271 102.28 4.59443 102.091C5.48615 101.902 6.56613 103.436 7.00663 105.517ZM10.2304 109.356C10.5332 109.382 10.7583 109.647 10.7332 109.95C10.4686 113.137 7.80087 115.186 4.92421 115.868C2.05365 116.55 -1.2972 115.939 -3.06346 113.5C-3.24168 113.254 -3.18669 112.91 -2.94063 112.732C-2.69457 112.554 -2.35061 112.609 -2.17239 112.855C-0.760354 114.804 2.05264 115.419 4.67014 114.798C7.28154 114.178 9.42607 112.396 9.63668 109.859C9.66182 109.556 9.92765 109.331 10.2304 109.356Z" fill="#88F32F"/>
<path d="M36.3131 101.517C36.0815 103.436 35.227 104.911 34.4045 104.812C33.5821 104.713 33.1031 103.077 33.3347 101.158C33.5663 99.2385 34.4207 97.7633 35.2432 97.8625C36.0656 97.9618 36.5446 99.598 36.3131 101.517Z" fill="#71D81F"/>
<path d="M41.277 102.116C41.0455 104.035 40.191 105.51 39.3685 105.411C38.5461 105.312 38.0671 103.676 38.2987 101.757C38.5302 99.8376 39.3847 98.3623 40.2072 98.4616C41.0296 98.5608 41.5086 100.197 41.277 102.116Z" fill="#71D81F"/>
<path d="M42.9235 106.365C43.1766 106.475 43.2922 106.77 43.1818 107.023C42.0191 109.687 39.1232 110.666 36.4483 110.41C33.7791 110.153 31.0759 108.645 30.2721 106.029C30.191 105.765 30.3392 105.485 30.6032 105.404C30.8671 105.323 31.1469 105.471 31.228 105.735C31.8706 107.826 34.11 109.181 36.5439 109.414C38.9721 109.647 41.3397 108.744 42.2653 106.623C42.3757 106.37 42.6704 106.255 42.9235 106.365Z" fill="#71D81F"/>
<path fillRule="evenodd" clipRule="evenodd" d="M47.0541 104.324C46.3924 109.807 41.4111 113.716 35.9281 113.054C30.445 112.392 26.5365 107.411 27.1982 101.928C27.8598 96.4449 32.8411 92.5364 38.3242 93.1981C43.8073 93.8597 47.7158 98.841 47.0541 104.324ZM46.0613 104.204C45.4658 109.139 40.9826 112.657 36.0479 112.061C31.1131 111.466 27.5955 106.983 28.191 102.048C28.7865 97.113 33.2696 93.5954 38.2044 94.1909C43.1392 94.7864 46.6568 99.2695 46.0613 104.204Z" fill="#71D81F"/>
<path fillRule="evenodd" clipRule="evenodd" d="M36.0479 112.061C40.9826 112.657 45.4658 109.139 46.0613 104.204C46.6568 99.2695 43.1392 94.7864 38.2044 94.1909C33.2696 93.5954 28.7865 97.113 28.191 102.048C27.5955 106.983 31.1131 111.466 36.0479 112.061ZM36.3131 101.517C36.0815 103.436 35.227 104.911 34.4045 104.812C33.5821 104.713 33.1031 103.077 33.3347 101.158C33.5663 99.2385 34.4207 97.7633 35.2432 97.8625C36.0656 97.9618 36.5446 99.598 36.3131 101.517ZM41.277 102.116C41.0455 104.035 40.191 105.51 39.3685 105.411C38.5461 105.312 38.0671 103.676 38.2987 101.757C38.5302 99.8376 39.3847 98.3623 40.2072 98.4616C41.0296 98.5608 41.5086 100.197 41.277 102.116ZM42.9235 106.365C43.1766 106.475 43.2922 106.77 43.1818 107.023C42.0191 109.687 39.1232 110.666 36.4483 110.41C33.7791 110.153 31.0759 108.645 30.2721 106.029C30.191 105.765 30.3392 105.485 30.6032 105.404C30.8671 105.323 31.1469 105.471 31.228 105.735C31.8706 107.826 34.11 109.181 36.5439 109.414C38.9721 109.647 41.3397 108.744 42.2653 106.623C42.3757 106.37 42.6704 106.255 42.9235 106.365Z" fill="#88F32F"/>
<path d="M28.6031 73.3242C27.0789 74.513 25.4302 74.9471 24.9208 74.2938C24.4113 73.6406 25.234 72.1473 26.7582 70.9586C28.2825 69.7698 29.9311 69.3357 30.4406 69.989C30.9501 70.6422 30.1274 72.1355 28.6031 73.3242Z" fill="#71D81F"/>
<path d="M31.678 77.2669C30.1538 78.4557 28.5051 78.8898 27.9957 78.2365C27.4862 77.5833 28.3088 76.0901 29.8331 74.9013C31.3574 73.7126 33.006 73.2785 33.5155 73.9317C34.0249 74.585 33.2023 76.0782 31.678 77.2669Z" fill="#71D81F"/>
<path d="M29.8255 81.4302C29.9256 81.6876 29.7981 81.9773 29.5408 82.0774C26.8321 83.1308 24.0957 81.7676 22.392 79.6896C20.6919 77.616 19.856 74.6353 21.1444 72.221C21.2744 71.9773 21.5773 71.8852 21.8209 72.0153C22.0646 72.1453 22.1567 72.4482 22.0267 72.6918C20.9966 74.6219 21.6151 77.1648 23.1653 79.0556C24.7119 80.942 27.0218 81.9841 29.1783 81.1454C29.4357 81.0453 29.7254 81.1728 29.8255 81.4302Z" fill="#71D81F"/>
<path fillRule="evenodd" clipRule="evenodd" d="M34.1851 82.9207C29.8301 86.3171 23.5463 85.54 20.1499 81.185C16.7534 76.83 17.5305 70.5462 21.8855 67.1498C26.2406 63.7533 32.5243 64.5304 35.9208 68.8855C39.3172 73.2405 38.5401 79.5243 34.1851 82.9207ZM33.5701 82.1321C29.6506 85.1889 23.9952 84.4895 20.9384 80.57C17.8816 76.6505 18.581 70.9951 22.5005 67.9383C26.42 64.8815 32.0754 65.5809 35.1322 69.5004C38.189 73.4199 37.4896 79.0753 33.5701 82.1321Z" fill="#71D81F"/>
<path fillRule="evenodd" clipRule="evenodd" d="M20.9384 80.57C23.9952 84.4895 29.6506 85.1889 33.5701 82.1321C37.4896 79.0753 38.189 73.4199 35.1322 69.5004C32.0754 65.5809 26.42 64.8815 22.5005 67.9383C18.581 70.9951 17.8816 76.6505 20.9384 80.57ZM28.6031 73.3242C27.0789 74.513 25.4302 74.9471 24.9208 74.2938C24.4113 73.6406 25.234 72.1473 26.7582 70.9586C28.2825 69.7698 29.9311 69.3357 30.4406 69.989C30.9501 70.6422 30.1274 72.1355 28.6031 73.3242ZM31.678 77.2669C30.1538 78.4557 28.5051 78.8898 27.9957 78.2365C27.4862 77.5833 28.3088 76.0901 29.8331 74.9013C31.3574 73.7126 33.006 73.2785 33.5155 73.9317C34.0249 74.585 33.2023 76.0782 31.678 77.2669ZM29.8255 81.4302C29.9256 81.6876 29.7981 81.9773 29.5408 82.0774C26.8321 83.1308 24.0957 81.7676 22.392 79.6896C20.6919 77.616 19.856 74.6353 21.1444 72.221C21.2744 71.9773 21.5773 71.8852 21.8209 72.0153C22.0646 72.1453 22.1567 72.4482 22.0267 72.6918C20.9966 74.6219 21.6151 77.1648 23.1653 79.0556C24.7119 80.942 27.0218 81.9841 29.1783 81.1454C29.4357 81.0453 29.7254 81.1728 29.8255 81.4302Z" fill="#88F32F"/>
<path d="M40.3131 86.517C40.0815 88.4361 39.227 89.9114 38.4045 89.8121C37.5821 89.7129 37.1031 88.0767 37.3347 86.1576C37.5663 84.2385 38.4207 82.7633 39.2432 82.8625C40.0656 82.9618 40.5446 84.598 40.3131 86.517Z" fill="#71D81F"/>
<path d="M45.277 87.1161C45.0455 89.0351 44.191 90.5104 43.3685 90.4112C42.5461 90.3119 42.0671 88.6757 42.2987 86.7567C42.5302 84.8376 43.3847 83.3623 44.2072 83.4616C45.0296 83.5608 45.5086 85.197 45.277 87.1161Z" fill="#71D81F"/>
<path d="M46.9235 91.365C47.1766 91.4755 47.2922 91.7702 47.1818 92.0233C46.0191 94.6869 43.1232 95.6664 40.4483 95.4096C37.7791 95.1534 35.0759 93.6448 34.2721 91.0289C34.191 90.7649 34.3392 90.4852 34.6032 90.404C34.8671 90.3229 35.1469 90.4712 35.228 90.7351C35.8706 92.8264 38.11 94.1806 40.5439 94.4142C42.9721 94.6473 45.3397 93.7439 46.2653 91.6233C46.3757 91.3702 46.6704 91.2546 46.9235 91.365Z" fill="#71D81F"/>
<path fillRule="evenodd" clipRule="evenodd" d="M51.0541 89.3241C50.3924 94.8072 45.4111 98.7157 39.9281 98.054C34.445 97.3923 30.5365 92.411 31.1982 86.928C31.8598 81.4449 36.8411 77.5364 42.3242 78.1981C47.8073 78.8597 51.7158 83.841 51.0541 89.3241ZM50.0613 89.2043C49.4658 94.1391 44.9826 97.6567 40.0479 97.0612C35.1131 96.4657 31.5955 91.9825 32.191 87.0478C32.7865 82.113 37.2696 78.5954 42.2044 79.1909C47.1392 79.7864 50.6568 84.2695 50.0613 89.2043Z" fill="#71D81F"/>
<path fillRule="evenodd" clipRule="evenodd" d="M40.0479 97.0612C44.9826 97.6567 49.4658 94.1391 50.0613 89.2043C50.6568 84.2695 47.1392 79.7864 42.2044 79.1909C37.2696 78.5954 32.7865 82.113 32.191 87.0478C31.5955 91.9825 35.1131 96.4657 40.0479 97.0612ZM40.3131 86.517C40.0815 88.4361 39.227 89.9114 38.4045 89.8121C37.5821 89.7129 37.1031 88.0767 37.3347 86.1576C37.5663 84.2385 38.4207 82.7633 39.2432 82.8625C40.0656 82.9618 40.5446 84.598 40.3131 86.517ZM45.277 87.1161C45.0455 89.0351 44.191 90.5104 43.3685 90.4112C42.5461 90.3119 42.0671 88.6757 42.2987 86.7567C42.5302 84.8376 43.3847 83.3623 44.2072 83.4616C45.0296 83.5608 45.5086 85.197 45.277 87.1161ZM46.9235 91.365C47.1766 91.4755 47.2922 91.7702 47.1818 92.0233C46.0191 94.6869 43.1232 95.6664 40.4483 95.4096C37.7791 95.1534 35.0759 93.6448 34.2721 91.0289C34.191 90.7649 34.3392 90.4852 34.6032 90.404C34.8671 90.3229 35.1469 90.4712 35.228 90.7351C35.8706 92.8264 38.11 94.1806 40.5439 94.4142C42.9721 94.6473 45.3397 93.7439 46.2653 91.6233C46.3757 91.3702 46.6704 91.2546 46.9235 91.365Z" fill="#88F32F"/>
<path d="M22 88.5C22 90.433 21.3284 92 20.5 92C19.6716 92 19 90.433 19 88.5C19 86.567 19.6716 85 20.5 85C21.3284 85 22 86.567 22 88.5Z" fill="#71D81F"/>
<path d="M27 88.5C27 90.433 26.3284 92 25.5 92C24.6716 92 24 90.433 24 88.5C24 86.567 24.6716 85 25.5 85C26.3284 85 27 86.567 27 88.5Z" fill="#71D81F"/>
<path d="M29.1437 92.5211C29.4082 92.6004 29.5583 92.8792 29.4789 93.1437C28.6438 95.9274 25.886 97.2468 23.1997 97.3124C20.519 97.3777 17.6545 96.2038 16.5431 93.7031C16.4309 93.4507 16.5446 93.1552 16.7969 93.0431C17.0493 92.9309 17.3448 93.0446 17.4569 93.2969C18.3455 95.2962 20.731 96.3723 23.1753 96.3126C25.614 96.2532 27.8562 95.0726 28.5211 92.8563C28.6004 92.5918 28.8792 92.4417 29.1437 92.5211Z" fill="#71D81F"/>
<path fillRule="evenodd" clipRule="evenodd" d="M33 90C33 95.5228 28.5228 100 23 100C17.4772 100 13 95.5228 13 90C13 84.4772 17.4772 80 23 80C28.5228 80 33 84.4772 33 90ZM32 90C32 94.9706 27.9706 99 23 99C18.0294 99 14 94.9706 14 90C14 85.0294 18.0294 81 23 81C27.9706 81 32 85.0294 32 90Z" fill="#71D81F"/>
<path fillRule="evenodd" clipRule="evenodd" d="M23 99C27.9706 99 32 94.9706 32 90C32 85.0294 27.9706 81 23 81C18.0294 81 14 85.0294 14 90C14 94.9706 18.0294 99 23 99ZM22 88.5C22 90.433 21.3284 92 20.5 92C19.6716 92 19 90.433 19 88.5C19 86.567 19.6716 85 20.5 85C21.3284 85 22 86.567 22 88.5ZM27 88.5C27 90.433 26.3284 92 25.5 92C24.6716 92 24 90.433 24 88.5C24 86.567 24.6716 85 25.5 85C26.3284 85 27 86.567 27 88.5ZM29.1437 92.5211C29.4082 92.6004 29.5583 92.8792 29.4789 93.1437C28.6438 95.9274 25.886 97.2468 23.1997 97.3124C20.519 97.3777 17.6545 96.2038 16.5431 93.7031C16.4309 93.4507 16.5446 93.1552 16.7969 93.0431C17.0493 92.9309 17.3448 93.0446 17.4569 93.2969C18.3455 95.2962 20.731 96.3723 23.1753 96.3126C25.614 96.2532 27.8562 95.0726 28.5211 92.8563C28.6004 92.5918 28.8792 92.4417 29.1437 92.5211Z" fill="#88F32F"/>
<path d="M42 69L103 137.5H78L42 69Z" fill="#7B60CF" fill-opacity="0.3"/>
<rect x="-4.74951" y="108" width="65.2703" height="12" transform="rotate(25.9478 -4.74951 108)" fill="#61A724" fill-opacity="0.3"/>
<path fillRule="evenodd" clipRule="evenodd" d="M72.6782 122.863L-0.0566835 89L-6 101.766L76.6554 140.247L79.4059 134.339L72.6782 122.863Z" fill="#61A724" fill-opacity="0.3"/>
<defs>
<linearGradient id="paint0_linear_16_3711" x1="68.7451" y1="0" x2="68.7451" y2="214.443" gradientUnits="userSpaceOnUse">
<stop stop-color="#43489D"/>
<stop offset="1" stop-color="#478ECE"/>
</linearGradient>
</defs>
</svg>
