<svg width="34" height="32" viewBox="0 0 34 32" fill="none" xmlns="http://www.w3.org/2000/svg">
<g clip-path="url(#clip0_222_1497)">
<path fill-rule="evenodd" clip-rule="evenodd" d="M6.94205 0.764489L0.912971 14.5381C0.890028 14.5893 0.882758 14.6472 0.892223 14.7032C0.901688 14.7593 0.927392 14.8105 0.965575 14.8496L17.2487 31.8197C17.2949 31.8679 17.3565 31.8949 17.4206 31.8949C17.4847 31.8949 17.5463 31.8679 17.5926 31.8197L33.8756 14.8506C33.9138 14.8116 33.9395 14.7603 33.949 14.7043C33.9585 14.6482 33.9512 14.5904 33.9283 14.5391L27.8992 0.765548C27.8797 0.719291 27.8484 0.680105 27.809 0.652674C27.7697 0.625242 27.7238 0.610726 27.6771 0.61086H7.16611C7.11911 0.610224 7.07296 0.624391 7.0332 0.651651C6.99344 0.67891 6.96179 0.718099 6.94205 0.764489Z" fill="#50AF95"/>
<path fill-rule="evenodd" clip-rule="evenodd" d="M19.5124 15.9526C19.3955 15.9621 18.7916 16.0013 17.4443 16.0013C16.3727 16.0013 15.6119 15.9663 15.345 15.9526C11.2038 15.7544 8.11282 14.9704 8.11282 14.0317C8.11282 13.0929 11.2038 12.31 15.345 12.1087V15.1717C15.6158 15.1929 16.3912 15.2427 17.4628 15.2427C18.7487 15.2427 19.3926 15.1844 19.5086 15.1728V12.1108C23.6409 12.311 26.7251 13.0951 26.7251 14.0317C26.7251 14.9683 23.6419 15.7523 19.5086 15.9515L19.5124 15.9526ZM19.5124 11.794V9.05304H25.2795V4.87329H9.57796V9.05304H15.344V11.7929C10.6573 12.0271 7.13281 13.0368 7.13281 14.2467C7.13281 15.4567 10.6573 16.4654 15.344 16.7006V25.4839H19.5115V16.6974C24.1874 16.4632 27.7061 15.4546 27.7061 14.2457C27.7061 13.0368 24.1904 12.0281 19.5115 11.7929L19.5124 11.794Z" fill="white"/>
</g>
<defs>
<clipPath id="clip0_222_1497">
<rect width="33.0659" height="31.284" fill="white" transform="translate(0.887695 0.61084)"/>
</clipPath>
</defs>
</svg>
